<svg width="99" height="54" xmlns="http://www.w3.org/2000/svg" xml:space="preserve">
    <g stroke="null" fill-rule="evenodd" clip-rule="evenodd">
        <path d="M38.52 6.59c-2.011 2.692-5.385 4.129-6.26 7.973 1.007-2.142 2.372-3.823 3.931-5.253.104-.008.206-.015.219.094.685-1.149 1.872-1.651 2.547-2.814.225.024.412.095.582.188-.99 2.006-3.064 3.048-4.585 4.784-.22.25-.415.685-.655 1.032-.426.613-.746.858-1.02 1.688v.75c-1.026-.022-1.845-.31-2.402-.938.189-2.001 1.24-2.958 2.33-4.127 1.035-1.11 2.038-2.648 3.203-3.095.187-.073.356-.418.727-.376-.293.815-1.07 1.234-1.674 1.782a42.205 42.205 0 0 0-2.474 2.44c-.783.843-1.552 2.084-1.602 3.564 1.17-3.84 4.285-5.172 6.333-7.88.234.099.591.046.796.188h.004z" fill="#F33340" />
        <path d="M41.214 7.34c-.536.815-1.685 1.258-2.475 1.97-1.27 1.146-2.32 2.35-3.348 3.846-.31.452-.858.869-.874 1.595.794-.545 1.147-2.145 1.966-2.345 1.137-2.35 3.481-3.143 5.022-4.972 1.18.18 1.404 1.603.51 2.533-.524.545-1.486 1.03-2.402 1.782-1.6 1.313-3.367 3.335-6.042 3.283.164-2.058 1.781-3.506 2.912-4.315.009-.278.15-.423.29-.562 1.08-1.072 2.439-1.776 3.204-3.283.369.209.894.22 1.236.469h.001zm-.365 1.783c-1.655 1.27-3.492 2.292-4.513 4.409.89-.532 1.519-1.706 2.403-2.533 1.088-1.02 2.49-1.509 3.42-2.72-.103-.023-.122-.155-.218-.188-.342.36-.705.735-1.092 1.032z" fill="#F33340" />
        <path d="M41.942 8.091c.095.033.114.165.218.188-.93 1.211-2.333 1.7-3.42 2.72-.885.827-1.514 2.001-2.403 2.533 1.02-2.117 2.858-3.138 4.513-4.41.388-.296.75-.671 1.093-1.03h-.001z" />
        <path d="M28.62 14.376c.15-.217.63-.065.801 0 .293 1.09-.309 2.556-.8 3.564-1.276 2.617-4.947 3.861-7.207 5.534-1.795 1.33-1.529 4.332.146 5.628 1.86 1.441 4.492 2.271 6.187 4.221.7.806 1.122 1.845 1.602 3.19-.17.344-.246.809-.437 1.125-1.593.003-3.23-.458-4.732-1.032.1.33.663.593 1.165.75.843.265 2.015.473 2.693.564.88.117 1.173-.158 1.383-.845.146.345.007.63 0 1.032-1.656.527-3.733-.388-5.314-1.032-.252-.081-.144-.626-.436-.656-.378.143.198.47-.073.75-1.204.446-2.782-.528-4.076-.844.043-.4-.053-.62-.073-.938-.999-1.243-3.362-1.867-4.659-1.595 1.12.34 3.148.52 4.004 1.22.21.171.511.619.437 1.031-.23.153-.67-.103-.656-.562-1.15-.706-2.397-1.288-4.148-1.22-2.31-.994-3.858-2.97-5.387-4.971-.727-1.792-.927-4.24-.146-6.191.363-.906 1.718-2.385 2.548-3.19.69-.668 2.171-1.902 3.203-2.063.208-.032.462.103.655.094 1.615-.075 2.856-.912 3.93-1.876.156 1.012-1.077 1.595-1.965 1.876-.668.212-1.45.157-2.329.188-.248.105.023.363-.146.469-2.156.13-3.293 1.572-4.367 3.096-1.95 1.315-2.43 5.927-.728 8.16.376.493.998 1.002 1.529 1.501.536.504 1.06 1.175 1.529 1.407.845.419 1.836.557 2.984.657 2.85.247 4.501 2.591 6.842 2.814-2.039-.493-3.298-2.285-5.386-2.814-1.534-.39-3.387-.219-4.732-1.126-.519-.35-1.794-1.574-2.547-2.532-1.274-1.623-1.507-5.142-.146-7.13 1.118-1.63 2.896-3.54 4.44-3.845.324-.064.544.158.801.187 2.21.257 4.072-.574 5.241-2.25-.805.457-1.652 1.57-2.912 1.875a6.257 6.257 0 0 1-2.402.094c.294-.423.878-.208 1.383-.281 1.136-.164 2.57-.784 3.203-1.5.034-.395-.037-.924.218-1.033.406.096-.167.189-.072.47a9.458 9.458 0 0 1 3.202-1.033c.274-.008.17.47.364.563.238-.213-.23-.621 0-.844.484-.055.488.556.364 1.032.436.093.369-.463.437-.844.508.029.76-.27 1.237-.282-.275.521-1.024.43-1.164 1.126 1.213-.951 3.523-2.02 5.168-1.22.063-.52-.445-.304-.655-.471v.002zM17.485 19.44c-1.136.286-2.335.224-3.348.563-.532.178-1.124.557-1.602.844-.46.277-1.087.584-1.31 1.22 1.024-.588 1.97-1.503 3.057-1.877 1.357-.466 2.77-.295 4.077-.75 1.794-.626 3.48-1.875 5.386-2.345.941-.232 1.893-.223 2.912-.375-3.354-.658-6.241 1.982-9.171 2.72h-.001zm-5.969 10.6c1.24 1.12 2.903 1.633 4.659 2.157 1.277.38 2.495 1.012 3.567 1.594.325.177.7.423 1.019.375-1.367-.982-3.042-1.775-4.732-2.25-2.913-.82-5.388-2.284-6.77-5.16-.085.014-.206-.017-.218.093.675 1.258 1.573 2.227 2.475 3.19zm10.555 2.907c.634.589 1.518 1.064 2.402 1.5 1.195.59 2.796 1.092 3.858 1.032-.159-.296-.653-.158-1.02-.187-.867-.415-1.833-.702-2.765-1.032-3.842-2.648-8.944-3.67-12.811-6.285h-.219c3.03 2.288 7 3.362 10.555 4.97v.002zm5.24 4.128c.518.055 1.24.127 1.456-.281-.946.092-2.396-.003-3.276-.282-1.317-.417-1.924-1.687-3.203-2.063h-.145c1.308 1.254 3.118 2.406 5.169 2.624v.002zm-7.642-1.127c.983.583 2.221 1.033 3.493.75-.08-.363.258-.333.073-.562-.923 1.185-2.744-.426-3.566-.188z" fill="#E9EEF1" />
        <path d="M39.466 16.252c-.888-.482-1.939-.753-2.839-1.22-.011-.109.016-.166.073-.187.917-.112 1.769.654 2.693.844-.001.22.126.276.073.563zm5.46 1.876c-1.747-.594-3.447-1.248-5.168-1.876.006-.133.012-.266-.073-.282.026-.107.128-.237.146-.093 1.652.809 4.005.714 5.095 2.25z" fill="#F33340" />
        <path d="M32.552 15.877h.218c.26.526.385 1.982-.145 2.25.186-.75.181-1.607-.073-2.25z" />
        <path d="M18.43 16.158c-.334.662-1.682 1.237-2.475 1.407-.355.076-.941.24-1.164-.188.871-.172 2.162-1.474 3.275-1.032-.146-.356.331-.371.364-.187z" fill="#F48F9B" />
        <path d="M36.337 16.346c.581.232.858 2.057.291 2.626-.27-.247.14-.544.146-.938.012-.706-.506-1.16-.436-1.688h-.001zm-9.682.374c-1.019.153-1.97.144-2.912.376-1.906.47-3.591 1.72-5.386 2.345-1.306.455-2.72.284-4.077.75-1.086.374-2.033 1.288-3.057 1.876.223-.635.85-.942 1.31-1.22.478-.287 1.07-.666 1.602-.843 1.013-.34 2.212-.277 3.348-.563 2.931-.738 5.818-3.378 9.172-2.72z" />
        <path d="M45.144 17.753c9.623 2.482 17.698 6.96 26.641 10.318-.453.145-1.177-.17-1.529-.47-2.252-.457-4.383-1.277-6.405-2.25-2.042-.984-4.072-1.774-6.114-2.627-4.064-1.696-8.088-3.487-12.52-4.596.007-.17-.091-.199-.074-.376h.001z" fill="#F33340" />
        <path d="M40.414 18.878c.712.42.661 1.98.145 2.627-.367-.133.11-.623.146-.845.184-.91-.398-1.276-.29-1.782h-.001z" />
        <path d="M54.461 21.692c-.022.219-.155.404.073.47-1.084-.012-2.059-.975-3.203-1.22-.105-.177-.107-.488-.291-.563-.254.028.006.254-.146.281-.897-.406-2.027-.514-2.62-1.313-.02-.167.069-.192.073-.094a49.061 49.061 0 0 1 6.115 2.44z" fill="#F33340" />
        <path d="M31.387 19.347c1.01.168 1.124 2.442.364 3.096-.203-.4.272-.79.291-1.407.027-.865-.339-1.13-.655-1.689zm11.646 1.032c.941.349.419 2.812-.437 2.439.401-.4.82-.756.728-1.595-.036-.342-.306-.44-.29-.844h-.001zm9.027 3.189c.002-.091.089-.073.145-.094.522.355.43 1.857.073 2.345-.23-.408.378-1.774-.218-2.252v.001z" />
        <path d="M59.921 28.351c.24-.283.49-.556.655-.938.102-.493-.288-.685-.072-1.031.59.478.174 1.747-.292 1.97 1.26.666 3.102.508 4.077 1.313-.02.318.056.76-.073.938-1.21.326-2.813-.11-3.785-.094-.09.388.027.73-.218 1.22.067.225.529-.057.436.375-.228.116-.66-.291-.946.093-.423-.5-1.171-.559-1.82-.656-2.418-.363-5.086-.43-7.424-1.032-.516.116-.295 1.183-.946 1.125-.18-.348.395-.39.363-.844-.464-.19-1.344-.108-1.82 0 .288-.693 1.697.06 2.112-.469.031-.428-.074-1.033.073-1.313.423.041.149 1.116.145 1.22 1.867.611 5.164.81 7.57 1.125.86.113 2.272 1.026 2.184-.75-.645-.597-1.578-.41-2.402-.657-3.186-.954-6.545-2.177-9.9-2.908-.166.598-.061 1.547-.655 1.595.078-.485.531-.912.292-1.5-2.536-.964-5.977-.327-8.444-.751-2.35-.404-5.226.756-7.206-.657-.048-.477-.149-1.147 0-1.594 1.101-.712 1.819.182 2.984.28 2.745.234 5.95-.183 8.662.189 1.975.27 4.635.632 6.551 1.219 3.706.593 6.65 1.724 9.896 2.539l.003-.007zm-15.36-3.188c-2.059-.237-4.207-.087-6.55-.281-1.447-.12-2.92.165-4.15-.094-.526-.111-1.693-1.013-1.747.187-.035.798.944.976 1.383 1.032 2.223.287 3.796-.184 5.896 0 .387.034.775.185 1.165.188 3.5.03 7.2.232 10.409 1.032.664.165 1.254.618 1.892.844.842.298 1.747.392 2.62.656 1.751.53 3.52 1.091 5.46 1.407.98.16 2.164.452 2.984-.093-1.088-.724-2.637-.853-4.076-1.126-4.46-1.293-9.654-3.104-15.287-3.752h.001zm-20.745-.938c.536.4.622 2.267 0 2.626.222-.944.197-1.643 0-2.627z" />
        <path d="M59.847 28.915c1.438.272 2.988.402 4.076 1.126-.82.545-2.004.253-2.984.093-1.94-.316-3.709-.878-5.46-1.407-.873-.264-1.778-.358-2.62-.656-.638-.226-1.228-.679-1.892-.845-3.21-.8-6.91-1.002-10.41-1.031-.39-.004-.778-.154-1.164-.188-2.1-.184-3.673.287-5.896 0-.439-.056-1.419-.234-1.383-1.032.054-1.2 1.22-.298 1.747-.187 1.23.258 2.703-.027 4.149.093 2.343.195 4.492.045 6.551.282 5.636.65 10.829 2.46 15.289 3.754l-.003-.002zm-27.514-4.221v.469c1.076.887 3.564.352 4.586.563-.656-.867-3.713.47-4.44-.845.084-.172.474.05.363-.375-.265-.06-.278.204-.508.189l-.001-.001zm25.112 4.127c-3.801-1.088-7.578-2.533-11.646-3.001-2.58-.297-5.627-.165-8.298-.47.02-.213-.017-.352-.145-.374-.057.02-.085.078-.073.187h-.146c.32.677 1.126.417 1.674.47 1.753.165 4.204.04 6.406.187 2.109.14 3.707.758 5.532 1.22 4.14 1.044 8.14 2.632 12.52 3.094-1.902-.791-3.905-.762-5.825-1.312h.001z" fill="#F33340" />
        <path d="M32.843 24.506c.11.425-.28.203-.364.375.727 1.314 3.784-.022 4.44.844-1.021-.21-3.51.325-4.586-.562v-.47c.23.017.244-.248.51-.186zm-6.261.094c.738.434.665 2.667-.218 2.814.262-.566.589-.974.51-1.782-.047-.474-.412-.643-.293-1.031l.001-.001zm36.686 5.534c-4.379-.463-8.38-2.05-12.52-3.096-1.824-.46-3.422-1.078-5.531-1.219-2.202-.147-4.654-.022-6.406-.188-.549-.051-1.355.209-1.674-.468h.145c-.011-.11.016-.167.073-.188.128.023.166.161.146.375 2.671.304 5.718.172 8.298.47 4.068.467 7.844 1.912 11.646 3 1.922.55 3.924.521 5.825 1.313h-.002zm-.435-2.064c.35-.65 1.494-1 .655-2.25.947.046.45 2.609-.656 2.25zM22.36 26.195c.442.474.202 2.004-.363 2.063.373-.598.253-1.532.364-2.063zm-13.32.657c.012-.11.133-.08.219-.094 1.38 2.876 3.856 4.34 6.769 5.16 1.69.475 3.364 1.268 4.731 2.25-.318.048-.693-.198-1.019-.375-1.071-.582-2.29-1.214-3.566-1.594-1.756-.524-3.42-1.038-4.659-2.158-.902-.965-1.8-1.934-2.475-3.19zm30.136 0c.936.034.745 2.539.072 2.439.479-.714.342-1.748-.072-2.44zm-5.242.655c.754.64.492 2.98-.51 3.002.271-.51.76-.774.801-1.501.033-.59-.368-.971-.29-1.5h-.001zm31.883.376h.218c.208.404.331 2.041-.218 2.064.236-.78.166-1.227 0-2.063zm3.493 0c.118-.026.126.089.22.094.143 1.124-.254 2.049-.947 1.782.511-.407.91-1.078.728-1.876zm-57.795.094h.219c3.867 2.614 8.97 3.637 12.81 6.285.933.33 1.9.617 2.767 1.032.365.028.86-.109 1.019.187-1.062.06-2.663-.441-3.858-1.032-.884-.436-1.768-.911-2.402-1.5-3.554-1.61-7.526-2.684-10.554-4.971v-.001zm60.415.844c.606.432-.073 1.904-.655 1.407.329-.374.805-.68.655-1.406zm-26.495.469c.607.596.411 2.48-.364 2.626.02-.467.418-.505.51-1.032.104-.61-.185-1.129-.148-1.595h.002zm-10.191.189c.697.242.98 1.755.655 2.72-.025-1.156-.24-2.067-.655-2.72zm5.823.281c.868.374.5 2.752-.364 2.438.731-.495.833-1.491.364-2.44v.001zm-10.699.75c.588.497.435 2.47-.218 2.72.32-.795.433-1.679.218-2.72zm37.705.375h.218c.361.818.192 1.637-.218 2.25 1.258.295 3.189.236 4.804.095.282-.293.412-.783.364-1.501.489.142.024.955.146 1.5.542-.059 1.072-.447 1.747-.187-.693.451-1.96.164-2.548.75-.287.12-.176-.273-.364-.281-1.285.063-2.94.055-4.367-.094-.436-.045-1.012-.052-1.238-.469.56-.056.605.231 1.02.188.295-.306.502-.728.654-1.22-.032-.397-.286-.506-.218-1.033v.002zm-29.698.28c.483.394.652 2.204 0 2.533.273-.839.18-1.69 0-2.533z" />
        <path d="M51.914 33.135c-.637 1.367-2.393 1.293-4.076 1.313.02-.475.234-.698.146-1.313 1.004-.312 2.923-.296 3.931 0zm4.44.47c.005.35-.073.593-.145.844-1.693-.308-3.558-.225-4.877-.187.269-.467.78-.62.946-1.22 1.238.337 3.098.178 4.077.562z" fill="#F33340" />
        <path d="M31.677 33.418c.751.366.542 2.802-.218 2.907.418-.758.719-1.961.218-2.907z" />
        <path d="M56.572 33.511c1.28.164 2.68.175 3.93.376-.11.8-.937.442-1.528.469-.802.036-1.736.169-2.475.093.019-.316.114-.536.072-.936l.001-.002zm8.808.562c-1.545.435-3.038.312-4.659.281v-.469c1.758-.187 2.886.133 4.658.188z" fill="#F33340" />
        <path d="M22.143 34.45h.145c1.279.376 1.885 1.646 3.203 2.063.88.279 2.329.373 3.276.281-.217.409-.938.337-1.456.282-2.052-.217-3.862-1.37-5.17-2.625l.002-.002z" />
        <path d="M55.917 34.637c.031.258-.272.087-.291.28.284.484.5-.222.8-.28 1.319.058 2.613-.095 3.567 0-.006.242-.312.098-.218.469.306.199.581-.349.8-.563 1.485.238 3.146-.06 4.659-.094-.078.305-.253.487-.291.844-3.768-.026-7.719.261-11.938.281-4.048.02-7.613.295-10.991.75.174-.406.576-.583.873-.656 2.023-.493 4.107-.115 6.042-.656-.225-.54-1.105.116-1.31-.094.51-.42 1.315-.292 2.038-.375 2.177-.252 4.54-.115 6.26.093z" fill="#F33340" />
        <path d="M47.182 35.01c-1.583.055-2.892.463-4.513.47 1.452-.298 2.956-.796 4.513-.47zm-4.95.658c-.685-.008-1.16.255-1.892.188.452-.18 1.498-.554 1.893-.188z" fill="#F33340" />
        <path d="M18.43 35.855c-.314.77-1.06.194-1.674.094.5-.101 1.218.166 1.674-.093z" fill="#F48F9B" />
        <path d="M23.235 36.138c.184.23-.153.2-.073.563-1.272.283-2.51-.167-3.494-.75.821-.24 2.642 1.37 3.567.187z" />
        <path d="M42.523 43.83c-.263.955-.988 1.686-1.674 1.687-1.113.002-2.118-1.719-2.766-2.344-1.942-1.313-3.18-3.533-4.804-5.253.242.888.912 1.536 1.456 2.25.991 1.305 2.091 2.249 3.275 3.472.79.816 1.365 1.684 2.475 2.063-.062.358-.436.313-.655.47-2.74-2.443-5.466-4.902-7.643-8.068.228 1 .954 1.623 1.529 2.345.555.699 1.108 1.5 1.747 2.157 1.284 1.323 2.863 2.287 4.003 3.752-1.76.9-3.095-.352-4.295-1.22a54.722 54.722 0 0 0-2.256-2.72c-.254-.283-.657-.47-.873-.75-.571-.737-1.471-2.603-1.02-3.564 1.649-.63 3.456-.848 4.95 0 .25.141.406.478.655.657 2.031 1.454 4.64 3.096 5.896 5.068v-.003zm-1.236.937c.081-.636-.528-.383-.583-.844-2.572-1.407-4.327-3.866-6.332-6.003h-.146c1.96 2.859 4.193 5.031 7.061 6.847zm-4.805-.187c-.45-.024-.645-.53-.946-.844-1.468-1.529-3.1-3.098-4.004-5.253-.148-.053-.142-.282-.29-.094-.058.02-.085.079-.074.188 1.14 2.409 2.974 3.922 4.44 5.91.898.437 1.397 1.389 2.403 1.688-.265-.849-1.221-.804-1.529-1.595zm-.073-5.254c1.96 1.321 3.46 3.235 5.46 4.503-.199-.69-.82-.954-1.238-1.313-1.404-1.21-2.697-2.438-4.076-3.565h-.146v.375z" fill="#F33340" />
        <path d="M34.226 37.92h.145c2.006 2.137 3.761 4.597 6.333 6.003.054.462.664.208.582.845-2.867-1.816-5.1-3.988-7.06-6.847zm3.784 8.255c-1.005-.3-1.504-1.25-2.402-1.688-1.466-1.987-3.3-3.501-4.44-5.91-.012-.109.016-.167.073-.188.148-.188.143.042.291.094.904 2.156 2.536 3.725 4.004 5.253.301.314.495.82.946.844.307.79 1.263.745 1.528 1.593v.002zm-1.6-7.223h.145c1.379 1.127 2.672 2.355 4.076 3.564.417.36 1.039.624 1.238 1.314-2-1.269-3.5-3.182-5.46-4.503v-.375z" />
        <path d="M92.313 41.39c-.105-.406-.331.19-.583-.094-1.102-.956-1.804-2.427-2.839-3.47-3.38-2.648-7.484-4.364-12.083-5.441 1.286 1.128 3.317.943 5.023 1.595 2.169.828 4.066 2.152 5.896 3.376-1.996-.86-4.196-2.686-6.843-3.376-1.578-.412-3.16-.478-4.367-1.407.629 1.16 2.177 1.134 3.276 1.688.637 1.618 2.132 2.13 2.984 3.47 2.265 1.585 3.713 4.221 6.114 5.629-1.268.281-2.794-1.763-3.93-2.908-1.767-1.78-3.252-3.025-4.95-4.596-.735-.18-.974-.997-1.674-1.22-.034-.2.104-.178.218-.187-.433-1.077-1.585-.92-2.548-.657-1.859 1.534-5.122 1.14-8.08 1.313-.896.053-1.797.23-2.62 0 .074-.249.25-.365.292-.656 4.09.011 7.052-.07 10.481-.845-.887-.367-1.805.257-2.839.376-2.348.268-4.98.279-7.57.187.325-.397 1.366-.15 1.82-.093-.213-.601-1.255-.134-1.82-.282.022-.622-.067-1.101-.436-1.22-.215.375.296.616.218 1.126-2.573-.125-5.638.158-8.225-.281-.286-.049-.663-.073-.874-.375-.174-.037.04.427-.218.281-1.477-.168-2.186-.421-3.712-.375-.177-.198.064-.417-.073-.563-.263-.026-.167.41-.291.563-2.276-.441-4.82-.07-6.187 0 .455.674 1.45-.37 1.965.187-.064.543-.182 1.017-.364 1.408-1.416.185-3.076.265-4.659.562-.053-.337-.086-.614-.072-.844 1.41-.308 2.97-.423 4.294-.844-.75-.133-1.945.19-2.693.375-3.188.79-6.784 1.26-10.263 1.313 2.394.322 5.686-.025 8.443-.75.119.151-.065.392 0 .75-3.327.865-5.787.608-9.39.657 1.895.325 3.264.323 5.532.188-2.067 1.39-4.873-.058-7.206 1.031 1.688-.313 2.844-.283 4.95 0 1.432-.687 3.663-.843 5.313-.938.06.359-.35.11-.29.47-1.719.416-3.594.306-5.096.656-1.073.25-2.413-.282-3.64-.094-1.026.157-1.7.92-2.766.844.302-.55 1.148-.397 1.456-.938-.459-.152-.95.463-1.456.563-.479-3.353-2.044-5.308-4.294-6.379-1.19-1.348-3.506-1.779-4.586-3.283-.654-.91-.714-2.63.073-3.564.631-.75 1.884-1.136 2.911-1.782 2.513-1.58 5.09-3.197 5.896-6.941.11-.985-.16-1.173.656-1.032-.031.21-.387.002-.437.187.63.146.537 1.33.582 1.97.45-.383.101-1.369 0-1.876 1.399.643 3.704 1.026 5.314.188.951.602 2.612.81 3.567 1.688-.433.203-1.516-.353-2.039-.656-.833-.02-1.395-.39-2.11-.563 1.024.95 2.798.874 4.076 1.688-.085.422-.35.611-.51.938.404.193.556-.542.8-.844 1.42.455 2.687 1.103 4.15 1.5-1.115-1.002-3.048-.95-4.15-1.97.49-.188 1.22.079 1.748.282 1.17.45 2.409 1.066 3.64 1.313-.042.428.274.397.218.844.837.187 2.058.567 3.13.75.328.338.096 1.07.218 1.502.319-.285.104-.799.146-1.314.763.33 1.69.448 2.256 1.032.076.692-.286.82-.291 1.407.475-.076.447-.8.51-1.407 1.113.504 2.318.89 3.275 1.595.02.681-.255.985-.364 1.5.312.065.56-.698.51-1.406.817.26 1.301.95 2.183 1.125-.588-.992-2.183-.688-2.329-2.251 1.39.586 2.997.891 4.15 1.782.073.564-.108.8-.146 1.22.46-.042.45-.833.364-1.314 3.21 1.512 6.602 2.98 10.19 4.128 2.016.645 4.209 1.23 6.042 2.25-.516.206-.966-.342-1.602-.28.083.675.995.28 1.238.75a26.306 26.306 0 0 1 6.114 1.876c1.066.483 2.336.855 3.276 1.407 1.68.987 3.14 2.63 5.168 3.47 1.267 1.119 2.548 2.22 3.057 4.315-.12.314-.317.53-.582.657-1.587-1.176-2.498-3.222-4.004-4.502 1.581.839 2.339 2.74 3.64 3.94.218-.061.623.118.725-.096l.002.002zM32.625 18.127c.53-.269.405-1.725.145-2.25h-.218c.254.643.259 1.5.073 2.25zm4.148-.094c-.006.395-.416.692-.146.938.567-.569.29-2.393-.291-2.626-.07.53.448.983.436 1.688zm3.931 2.627c-.035.221-.512.712-.145.844.515-.646.567-2.206-.146-2.626-.108.505.475.87.29 1.782h.001zm-8.662.375c-.02.618-.494 1.008-.291 1.407.76-.653.647-2.927-.364-3.095.315.56.681.824.654 1.688h.001zm11.283.188c.092.838-.327 1.195-.728 1.594.856.374 1.378-2.09.437-2.438-.017.403.253.502.29.844h.001zm8.953 4.597c.356-.489.449-1.99-.073-2.345-.057.02-.144.002-.146.094.596.477-.012 1.842.218 2.25zm-2.257 0c-1.916-.587-4.576-.949-6.55-1.22-2.713-.371-5.918.046-8.663-.187-1.165-.099-1.883-.993-2.984-.281-.149.447-.048 1.117 0 1.594 1.98 1.413 4.856.253 7.206.657 2.467.424 5.908-.213 8.444.75.24.59-.214 1.016-.292 1.5.594-.047.489-.996.655-1.594 3.355.731 6.714 1.954 9.9 2.908.823.247 1.757.06 2.402.657.088 1.775-1.324.863-2.184.75-2.406-.315-5.703-.514-7.57-1.125.004-.104.278-1.179-.146-1.22-.146.28-.04.885-.072 1.313-.415.529-1.825-.224-2.111.47.475-.11 1.355-.19 1.82 0 .03.454-.545.495-.365.843.652.058.43-1.009.947-1.125 2.338.601 5.006.669 7.424 1.032.649.097 1.397.155 1.82.656.285-.384.718.023.946-.093.093-.432-.369-.15-.437-.376.246-.489.129-.831.219-1.219.971-.016 2.574.42 3.785.094.129-.178.053-.62.073-.938-.975-.805-2.817-.647-4.077-1.314.466-.222.882-1.491.291-1.97-.215.347.175.54.073 1.032-.165.381-.414.654-.655.938-3.244-.82-6.188-1.952-9.898-2.537v.005zm-26.205 1.03c.622-.36.536-2.226 0-2.626.197.983.222 1.683 0 2.626zm3.058-1.22c.08.808-.248 1.216-.51 1.782.884-.147.956-2.38.22-2.814-.12.388.244.558.291 1.032zm36.614.189c.84 1.25-.304 1.6-.655 2.251 1.104.359 1.602-2.204.655-2.25v-.001zm-41.49 2.437c.564-.059.804-1.589.363-2.063-.11.53.009 1.464-.364 2.063zm17.25 1.032c.673.1.864-2.405-.072-2.439.414.695.55 1.728.072 2.44v-.001zm-5.022-.28c-.04.727-.53.99-.801 1.5 1.002-.022 1.264-2.362.51-3.002-.08.527.322.907.29 1.5v.001zm31.59.937c.55-.023.427-1.66.22-2.063h-.22c.167.836.237 1.283 0 2.063zm2.767-.187c.693.266 1.09-.658.946-1.782-.093-.005-.1-.12-.218-.094.181.798-.217 1.468-.728 1.876zm2.692.468c.581.497 1.26-.976.655-1.407.15.727-.327 1.034-.655 1.408v-.001zm-25.694.657c-.09.527-.488.565-.51 1.032.776-.147.972-2.03.365-2.627-.038.467.25.985.147 1.596h-.002zM35.9 32.197c.325-.965.042-2.478-.655-2.72.415.654.63 1.565.656 2.72zm4.805 0c.864.314 1.232-2.065.364-2.44.47.95.368 1.947-.363 2.44zM30.15 33.23c.653-.25.806-2.223.218-2.72.217 1.041.103 1.925-.218 2.72zm38.142-1.314c-.153.491-.359.913-.655 1.22-.415.042-.46-.245-1.02-.188.226.417.803.423 1.238.469 1.427.149 3.083.157 4.368.093.187.008.076.402.364.282.588-.587 1.855-.3 2.547-.75-.675-.26-1.205.127-1.747.187-.12-.546.343-1.359-.145-1.501.047.718-.082 1.208-.364 1.5-1.616.142-3.546.2-4.804-.093.41-.613.579-1.433.218-2.251h-.218c-.07.526.184.636.216 1.031h.002zm-29.916 1.782c.652-.329.483-2.14 0-2.532.18.842.273 1.694 0 2.533zm-6.915 2.627c.76-.105.969-2.542.218-2.908.5.946.2 2.15-.218 2.908z" fill="#F33340" />
        <path d="M45.509 18.972c.12-.187-.007-.12 0-.375.746-.017 1.788.379 2.62.562-.348.307.415.576 0 .657-.75-.442-1.845-.438-2.62-.844zM77.026 33.98c1.516.672 2.411 2.144 3.857 2.907.774 1.035 1.981 1.512 2.694 2.627.205-.078.188.132.364.093.474.816 1.273 1.365 1.965 2.064.51.515 1.083 1.024 1.383 1.595-1.227-.857-2.147-2.234-3.276-3.283-1.54-1.433-3.246-2.571-4.731-4.128-.68.002-.767-.763-1.383-.844-.165-.503-.766-.45-.873-1.031z" fill="#F33340" />
        <path d="M87.435 43.36c.496.114 1.653.76 2.257 0-.074-.366-.25-.015-.51-.095-3.308-2.553-5.943-5.973-9.098-8.723.597-.237 1.188.344 1.746.469.007.256-.12.189 0 .375 1.358 1.358 2.785 3.019 4.15 4.409.233.238.68.293.727.844.595.234.97.751 1.384 1.22.583-.031 1.04.99 1.455.562-.292-.374-.707-.59-1.164-.75-.172-.342-.452-.543-.801-.657-.105-.364-.406-.477-.655-.656-1.395-1.86-3.247-3.133-4.586-5.066.67.295 1.309.628 1.965.939.061.108.096.25.073.468 1.578 1.625 3.076 3.353 4.95 4.597-.297-.93-1.067-1.252-1.747-1.689-.81-1.051-1.932-1.7-2.62-2.908 1.89 1.097 3.594 2.434 4.876 4.315-.117.888.233 1.342.146 1.97-.215 1.562-1.767 1.201-2.547.378v-.003z" fill="#F33340" />
        <path d="M14.718 34.637c1.23-.236 2.402.403 3.275.938-.394.52-1.453-.236-2.11-.282-.193-.345-.497-.548-.874-.656.031.523.471.518.728.75-.331.111-.814-.388-1.02-.75z" fill="#F48F9B" />
        <path d="M37.502 14.376c4.306 2.03 9.136 2.998 13.684 4.596 1.386.487 2.744 1.177 4.077 1.688 1.367.524 2.645 1.258 4.003 1.501.342.55.947.545 1.456.75 1.437.579 3.146 1.264 4.513 2.064 2.767.998 5.644 2.183 8.225 3.283.91.387 1.87.667 2.693 1.125.584.325 1.083.96 1.674 1.22 2.017.886 4.184 1.148 6.115 2.251.593.339 1.183.751 1.747 1.126.562.372 1.052.934 1.601 1.313.174.12.472.067.655.187 1.076.708 2.335 1.833 3.494 2.627.534 1 1.13 1.92 1.602 3.001.083.796-.115 1.23-.364 1.595-.851.127-1.375-.167-1.893-.469-.091.97-.367 2.196-1.019 2.72-.49.049-1.155.237-1.674 0-1.932-.881-3.714-3.2-5.386-4.877-2.25-2.255-4.421-3.731-6.479-5.534-1.377.915-4.04.983-6.114 1.313-1.74-.208-4.444.022-6.697.187-6.032.441-12.13-.088-18.27.657-2.52.305-5.076.87-7.715 1.22 1.84 1.832 4.327 2.844 5.604 5.158-.135.98-.065 2.122-.51 2.627-.147.168-.44.075-.8.28-.41.236-.42.716-1.092.564-.563.853-3.142 1.104-4.149.656-2.099-.934-3.723-4.17-5.24-5.815-.111-1.046-.76-1.399-.801-2.533-1.942.517-4.532-.071-6.406-.938-.45.527-1.633-.052-2.184 0-.403.038-.481 0-1.019-.188-.266-.092-.554-.1-.8-.187-.461-.165-.908-.59-1.31-.657-.34-.056-.742.12-1.092.094-.945-.07-2.037-.516-2.84-1.125-.289-.22-.492-.638-.8-.845-.371-.25-.807-.26-1.165-.468-1.661-.97-3.008-2.588-3.93-4.503-1.04-2.159-1.267-5.572-.146-7.692.543-1.026 1.542-2.067 2.402-2.907.897-.877 1.993-1.475 3.13-1.877.777-1.513 2.647-1.644 4.586-1.875 1.543-.185 2.853-1.133 4.295-1.032.325.022.6.2.873.187.848-.04 1.853-.632 2.766-.844 1.305-.303 2.447-.189 3.64.188.135-2.262 1.275-3.315 2.474-4.596.716-.764 1.338-1.608 2.184-2.345.791-.69 1.054-1.102 2.11-1.22 1.752-.195 4.264.672 5.751 1.783.89 2.288-1.32 3.578-2.402 4.408-1.159.891-2.196 1.623-3.057 2.16v-.002zm.218-7.973c-2.048 2.708-5.163 4.04-6.333 7.879.05-1.48.819-2.72 1.602-3.564a42.202 42.202 0 0 1 2.475-2.44c.604-.548 1.38-.966 1.674-1.781-.372-.043-.54.303-.728.375-1.165.448-2.167 1.985-3.203 3.095-1.09 1.17-2.141 2.126-2.33 4.128.557.627 1.376.916 2.403.938v-.75c.273-.83.593-1.075 1.019-1.689.24-.346.435-.78.655-1.032 1.521-1.735 3.595-2.778 4.586-4.784a1.527 1.527 0 0 0-.583-.187c-.675 1.162-1.862 1.665-2.547 2.814-.013-.11-.115-.102-.219-.094-1.56 1.43-2.924 3.11-3.93 5.253.875-3.845 4.248-5.281 6.26-7.973-.202-.143-.559-.09-.798-.188h-.003zm2.256.469c-.765 1.507-2.124 2.211-3.203 3.283-.14.14-.282.284-.29.562-1.131.81-2.748 2.258-2.912 4.315 2.675.052 4.442-1.97 6.041-3.283.917-.752 1.878-1.237 2.402-1.782.894-.93.67-2.353-.51-2.533-1.54 1.829-3.884 2.623-5.022 4.972-.819.2-1.172 1.8-1.965 2.345.015-.727.563-1.143.874-1.595 1.028-1.495 2.078-2.7 3.348-3.846.79-.712 1.938-1.155 2.475-1.97-.34-.247-.864-.26-1.235-.468h-.003zm-10.7 7.973c-1.645-.802-3.955.268-5.168 1.22.14-.696.89-.606 1.164-1.126-.476.01-.729.31-1.237.28-.068.382 0 .938-.437.845.124-.476.12-1.087-.364-1.032-.23.223.238.632 0 .844-.195-.093-.09-.571-.364-.562a9.459 9.459 0 0 0-3.202 1.031c-.095-.28.478-.373.072-.469-.255.11-.184.638-.218 1.032-.634.717-2.067 1.337-3.203 1.501-.505.073-1.088-.142-1.383.281.855.13 1.676.082 2.402-.093 1.26-.305 2.107-1.419 2.912-1.877-1.169 1.677-3.03 2.509-5.24 2.252-.258-.03-.478-.252-.802-.188-1.544.305-3.322 2.215-4.44 3.846-1.361 1.987-1.128 5.506.146 7.129.753.958 2.028 2.182 2.547 2.532 1.345.907 3.198.737 4.732 1.126 2.088.53 3.347 2.321 5.386 2.814-2.34-.223-3.991-2.567-6.842-2.814-1.148-.1-2.14-.238-2.984-.657-.469-.232-.993-.903-1.529-1.407-.53-.5-1.153-1.007-1.529-1.5-1.703-2.234-1.222-6.846.728-8.161 1.074-1.524 2.211-2.966 4.368-3.096.168-.105-.103-.363.145-.469.878-.03 1.661.025 2.33-.187.887-.282 2.12-.864 1.965-1.876-1.075.964-2.315 1.8-3.93 1.876-.194.009-.448-.126-.656-.094-1.031.16-2.513 1.395-3.203 2.064-.83.804-2.186 2.283-2.548 3.189-.781 1.951-.581 4.4.146 6.19 1.528 2.002 3.076 3.978 5.386 4.972 1.752-.068 2.998.514 4.149 1.22-.014.459.426.715.655.562.075-.413-.227-.86-.437-1.032-.856-.699-2.884-.88-4.003-1.219 1.297-.273 3.66.352 4.658 1.595.02.317.116.538.073.938 1.294.315 2.873 1.29 4.077.844.27-.28-.305-.607.072-.75.292.03.185.575.437.656 1.58.644 3.657 1.558 5.314 1.032.006-.401.146-.687 0-1.032-.21.687-.503.961-1.383.844-.678-.09-1.85-.298-2.693-.563-.503-.157-1.066-.42-1.165-.75 1.501.574 3.139 1.035 4.731 1.032.192-.316.268-.782.437-1.126-.48-1.344-.9-2.383-1.601-3.189-1.696-1.95-4.327-2.78-6.188-4.221-1.674-1.296-1.94-4.299-.145-5.628 2.26-1.673 5.93-2.917 7.206-5.534.492-1.008 1.094-2.474.8-3.564-.171-.065-.65-.217-.8 0 .21.167.719-.05.655.469zm62.309 26.638c-1.301-1.2-2.059-3.1-3.64-3.94 1.505 1.28 2.417 3.326 4.003 4.502.266-.126.462-.343.583-.656-.509-2.096-1.79-3.197-3.057-4.315-2.027-.84-3.49-2.484-5.168-3.47-.94-.553-2.21-.925-3.276-1.408a26.3 26.3 0 0 0-6.114-1.876c-.243-.469-1.155-.075-1.238-.75.635-.061 1.086.486 1.602.281-1.833-1.021-4.026-1.606-6.042-2.251-3.588-1.148-6.98-2.615-10.19-4.127.086.48.096 1.271-.364 1.313.038-.42.218-.656.145-1.22-1.152-.89-2.76-1.196-4.149-1.782.146 1.563 1.74 1.26 2.33 2.252-.883-.176-1.367-.866-2.184-1.126.05.708-.198 1.471-.51 1.407.11-.516.383-.82.364-1.5-.957-.706-2.162-1.092-3.276-1.595-.062.607-.034 1.33-.51 1.407.006-.588.368-.716.292-1.407-.566-.584-1.493-.703-2.256-1.032-.042.514.172 1.028-.146 1.313-.122-.433.11-1.164-.218-1.5-1.072-.184-2.293-.564-3.13-.751.056-.447-.26-.416-.219-.844-1.23-.247-2.468-.863-3.64-1.313-.528-.204-1.257-.47-1.746-.282 1.101 1.02 3.034.968 4.149 1.97-1.463-.398-2.73-1.046-4.15-1.5-.245.301-.396 1.036-.8.843.159-.326.425-.515.51-.937-1.278-.815-3.052-.74-4.077-1.689.716.173 1.278.542 2.111.563.523.304 1.606.859 2.038.657-.954-.88-2.615-1.086-3.566-1.689-1.61.839-3.915.455-5.314-.187.101.506.45 1.493 0 1.876-.045-.64.048-1.824-.582-1.97.05-.185.406.023.436-.188-.816-.14-.545.047-.655 1.032-.81 3.747-3.386 5.364-5.898 6.944-1.028.645-2.28 1.032-2.912 1.782-.787.934-.726 2.654-.073 3.564 1.08 1.504 3.396 1.935 4.586 3.283 2.25 1.07 3.815 3.025 4.295 6.379.505-.1.996-.715 1.455-.563-.308.54-1.154.388-1.455.938 1.066.076 1.74-.687 2.766-.844 1.226-.188 2.566.344 3.64.093 1.501-.35 3.376-.24 5.094-.656-.06-.359.351-.11.292-.47-1.65.095-3.882.252-5.314.939-2.106-.284-3.262-.314-4.95 0 2.333-1.09 5.139.359 7.206-1.032-2.268.135-3.637.138-5.532-.187 3.603-.049 6.063.208 9.39-.657-.065-.358.12-.599 0-.75-2.757.725-6.05 1.071-8.443.75 3.479-.053 7.075-.524 10.263-1.313.748-.185 1.943-.508 2.693-.375-1.323.42-2.883.536-4.294.844-.014.23.02.507.073.844 1.583-.297 3.243-.377 4.658-.563.182-.39.3-.865.364-1.407-.515-.558-1.51.487-1.965-.188 1.366-.069 3.911-.44 6.187 0 .125-.151.028-.589.291-.562.137.145-.104.365.073.562 1.526-.046 2.235.208 3.712.376.259.146.044-.319.218-.282.212.303.588.327.874.376 2.587.438 5.653.156 8.225.28.078-.51-.433-.75-.218-1.125.37.118.458.598.436 1.22.565.147 1.607-.32 1.82.281-.454-.055-1.495-.304-1.82.094 2.59.091 5.222.081 7.57-.188 1.034-.118 1.952-.743 2.84-.375-3.43.775-6.392.856-10.482.844-.041.291-.218.408-.291.657.822.23 1.723.052 2.62 0 2.957-.173 6.22.221 8.08-1.313.962-.264 2.114-.42 2.547.656-.114.01-.252-.012-.218.188.7.223.94 1.04 1.674 1.22 1.698 1.571 3.184 2.816 4.95 4.596 1.136 1.144 2.662 3.19 3.93 2.907-2.401-1.407-3.85-4.044-6.114-5.628-.852-1.34-2.347-1.852-2.984-3.47-1.1-.554-2.647-.53-3.276-1.689 1.208.93 2.79.995 4.368 1.407 2.646.691 4.846 2.517 6.842 3.377-1.83-1.225-3.727-2.548-5.896-3.377-1.706-.651-3.737-.467-5.023-1.594 4.6 1.077 8.703 2.793 12.084 5.44 1.034 1.044 1.736 2.515 2.838 3.47.252.285.478-.31.583.094-.097.215-.503.035-.724.094l-.001-.002zM39.394 15.689c-.925-.19-1.777-.956-2.694-.844-.056.02-.084.079-.072.188.9.466 1.95.737 2.838 1.219.053-.287-.074-.342-.072-.563zm.437.188c-.017-.144-.12-.014-.146.094.085.015.08.148.073.28 1.72.629 3.421 1.283 5.168 1.877-1.09-1.536-3.442-1.442-5.095-2.251zm-21.765.469c-1.113-.443-2.405.86-3.276 1.031.223.428.81.264 1.165.188.793-.17 2.14-.745 2.474-1.407-.032-.184-.51-.168-.363.188zm27.15 1.782c4.433 1.109 8.457 2.9 12.52 4.596 2.043.853 4.073 1.643 6.115 2.627 2.022.973 4.152 1.793 6.405 2.25.352.3 1.075.615 1.529.47-8.944-3.358-17.018-7.837-26.641-10.318-.015.177.083.207.074.375h-.001zm2.912 1.688c.415-.08-.348-.35 0-.656-.832-.184-1.874-.58-2.62-.563-.007.256.121.189 0 .375.778.406 1.872.403 2.62.844zm.218-.563c-.004-.098-.093-.073-.073.094.593.8 1.723.907 2.62 1.313.152-.027-.107-.253.146-.281.185.075.186.386.292.563 1.144.245 2.119 1.208 3.202 1.22-.228-.066-.095-.251-.072-.47a49.054 49.054 0 0 0-6.114-2.439zm-.363 13.882c.089.615-.126.839-.146 1.313 1.683-.02 3.439.054 4.077-1.313-1.008-.296-2.927-.312-3.932 0zm4.295-.093c-.166.599-.678.752-.947 1.219 1.32-.038 3.185-.12 4.877.188.072-.251.15-.495.146-.845-.98-.382-2.839-.222-4.077-.561v-.001zM56.5 34.45c.739.075 1.672-.058 2.474-.094.591-.027 1.418.331 1.53-.47-1.252-.2-2.651-.21-3.932-.374.043.4-.053.62-.072.938zm4.222-.564v.469c1.62.03 3.114.154 4.658-.281-1.772-.055-2.9-.375-4.658-.188zM77.9 35.011c.617.081.703.846 1.383.844 1.486 1.557 3.19 2.695 4.732 4.128 1.128 1.049 2.048 2.426 3.275 3.283-.3-.571-.873-1.08-1.383-1.595-.691-.699-1.49-1.248-1.965-2.064-.175.039-.158-.171-.364-.093-.712-1.115-1.92-1.592-2.693-2.627-1.446-.763-2.342-2.235-3.858-2.908.106.581.707.529.873 1.032zm-28.243-.468c-.723.083-1.528-.044-2.039.375.206.21 1.086-.445 1.31.094-1.935.54-4.019.164-6.04.656-.298.073-.7.25-.874.657a84.067 84.067 0 0 1 10.99-.75c4.22-.02 8.17-.308 11.939-.282.038-.356.212-.538.29-.844-1.512.034-3.173.332-4.658.094-.22.215-.494.762-.8.563-.094-.37.211-.227.218-.47-.955-.094-2.248.06-3.567 0-.3.06-.516.766-.8.282.02-.193.322-.022.29-.281-1.72-.21-4.082-.347-6.26-.096v.002zm40.325 8.442c.087-.628-.263-1.082-.145-1.97-1.283-1.88-2.987-3.218-4.877-4.315.688 1.208 1.81 1.857 2.62 2.908.68.437 1.45.758 1.747 1.688-1.874-1.243-3.372-2.97-4.95-4.596.023-.217-.012-.36-.073-.469-.656-.31-1.296-.643-1.965-.938 1.34 1.932 3.19 3.205 4.586 5.065.249.18.55.293.655.657.349.113.63.315.8.657.458.16.874.376 1.165.75-.416.428-.873-.593-1.455-.563-.414-.468-.789-.985-1.384-1.22-.046-.55-.494-.605-.727-.843-1.365-1.39-2.792-3.052-4.15-4.41-.12-.185.007-.118 0-.374-.558-.125-1.15-.706-1.746-.47 3.155 2.751 5.79 6.17 9.098 8.724.26.08.437-.272.51.094-.604.761-1.761.115-2.257 0 .78.819 2.332 1.18 2.547-.378l.001.003zm-74.245-7.598c-.257-.231-.697-.227-.728-.75.376.109.68.311.873.657.658.046 1.717.801 2.111.281-.874-.534-2.046-1.173-3.276-.938.206.363.688.862 1.02.75zm26.933.094c1.62-.007 2.93-.415 4.513-.469-1.557-.328-3.062.17-4.513.468v.001zm-2.33.375c.73.067 1.207-.196 1.892-.188-.395-.367-1.44.008-1.893.187zm-23.583.093c.613.1 1.36.675 1.674-.094-.456.26-1.175-.007-1.674.094zm19.87 2.816c-.249-.178-.406-.515-.655-.657-1.494-.848-3.301-.63-4.95 0-.451.962.449 2.827 1.02 3.565.216.279.619.467.873.75a54.18 54.18 0 0 1 2.256 2.72c1.2.867 2.534 2.119 4.295 1.22-1.14-1.466-2.719-2.43-4.003-3.752-.639-.658-1.192-1.46-1.747-2.157-.575-.723-1.301-1.346-1.529-2.345 2.177 3.166 4.903 5.625 7.643 8.066.219-.155.593-.11.655-.469-1.11-.378-1.684-1.247-2.475-2.063-1.184-1.223-2.283-2.167-3.275-3.47-.544-.716-1.214-1.364-1.456-2.252 1.625 1.72 2.862 3.94 4.804 5.253.648.626 1.653 2.347 2.766 2.345.686-.001 1.411-.732 1.674-1.689-1.256-1.973-3.865-3.615-5.896-5.066v.001z" />
    </g>
</svg>