<svg width="173.31" height="141.37" xmlns="http://www.w3.org/2000/svg">
  <g stroke="#167d16" stroke-width="3.75">
    <path fill="#5dc328" d="M171.56 2c-1.76 18.18-1.566 36.657-4.913 54.59-3.115 16.687-6.748 33.847-15.349 48.696-6.054 10.454-14.071 20.312-24.573 26.403-23.775 13.786-51.816 5.793-70.168-13.145-13.82-14.26-19.036-31.671-15.026-50.521 3.431-16.125 17.228-28.125 30.696-36.975 28.427-18.906 64.021-23.91 97.224-28.71l1.055-.167 1.055-.17L171.56 2z"/>
    <path fill="none" d="M161.231 13.774C68.862 113.325 64.66 117.058 64.66 117.058"/>
    <path fill="none" d="M99.836 38.116c5.11 22.41 19.722 34.293 42.046 37.626M76.106 56.72c5.963 26.145 23.01 40.01 49.056 43.9M59.932 81.022c5.111 22.41 19.722 34.293 42.047 37.626M124.27 24.545c3.543 15.533 13.67 23.769 29.144 26.08M3 125.119c19.608 12.036 38.332 9.928 56.339-3.665"/>
  </g>
</svg>